<?xml version="1.0" encoding="UTF-8" standalone="no"?>
<svg width="166px" height="50px" viewBox="0 0 166 50" version="1.1" xmlns="http://www.w3.org/2000/svg" xmlns:xlink="http://www.w3.org/1999/xlink" xmlns:sketch="http://www.bohemiancoding.com/sketch/ns">
    <!-- Generator: Sketch 3.3.2 (12043) - http://www.bohemiancoding.com/sketch -->
    <title>app-store-btn--lg</title>
    <desc>Created with Sketch.</desc>
    <defs></defs>
    <g id="Page-1" stroke="none" stroke-width="1" fill="none" fill-rule="evenodd" sketch:type="MSPage">
        <g id="fleetio-fuel-landing-page" sketch:type="MSArtboardGroup" transform="translate(-85.000000, -500.000000)">
            <g id="Section-1---Hero" sketch:type="MSLayerGroup" transform="translate(85.000000, 60.000000)">
                <g id="app-store-btn--lg" transform="translate(0.000000, 440.000000)" sketch:type="MSShapeGroup">
                    <rect id="Rectangle-1" opacity="0.74842584" fill="#232B2E" x="0" y="0" width="166" height="50" rx="5"></rect>
                    <g id="Apple-Logo" transform="translate(14.000000, 7.500000)" fill="#FFFFFF">
                        <path d="M22.66,17.23 C22.62375,13.20125 25.95875,11.24125 26.11125,11.15 C24.2225,8.39625 21.295,8.02 20.26625,7.99 C17.8075,7.73125 15.4225,9.46125 14.17,9.46125 C12.8925,9.46125 10.96375,8.015 8.885,8.0575 C6.21,8.09875 3.7075,9.6475 2.335,12.0525 C-0.4975,16.95625 1.615,24.1625 4.32875,28.12625 C5.68625,30.0675 7.2725,32.235 9.34875,32.15875 C11.38,32.075 12.13875,30.86375 14.59,30.86375 C17.01875,30.86375 17.73125,32.15875 19.84875,32.11 C22.02875,32.075 23.40125,30.16 24.71125,28.20125 C26.28,25.97625 26.91,23.785 26.935,23.6725 C26.88375,23.655 22.70125,22.05875 22.66,17.23 L22.66,17.23 Z" id="Shape"></path>
                        <path d="M18.66,5.3825 C19.7525,4.01625 20.5,2.1575 20.2925,0.27125 C18.71125,0.34125 16.73375,1.365 15.595,2.70125 C14.5875,3.87875 13.6875,5.80875 13.92,7.62375 C15.69625,7.75625 17.52,6.7275 18.66,5.3825 L18.66,5.3825 Z" id="Shape"></path>
                    </g>
                    <g id="App-Store" transform="translate(51.000000, 22.500000)" fill="#FFFFFF">
                        <path d="M14.5203086,16.88 L11.6885679,16.88 L10.1374074,11.99375 L4.74575309,11.99375 L3.26816049,16.88 L0.511234568,16.88 L5.85301235,0.245 L9.15234568,0.245 L14.5203086,16.88 L14.5203086,16.88 Z M9.66981481,9.94375 L8.26703704,5.6 C8.11865432,5.15625 7.84059259,4.11125 7.43035802,2.46625 L7.38048148,2.46625 C7.2171358,3.17375 6.95403704,4.21875 6.5924321,5.6 L5.21459259,9.94375 L9.66981481,9.94375 L9.66981481,9.94375 Z" id="Shape"></path>
                        <path d="M28.2575556,10.735 C28.2575556,12.775 27.7076667,14.3875 26.6078889,15.57125 C25.6228272,16.625 24.3996049,17.15125 22.9394691,17.15125 C21.3633704,17.15125 20.2311728,16.58375 19.5416296,15.44875 L19.4917531,15.44875 L19.4917531,21.7675 L16.8333333,21.7675 L16.8333333,8.83375 C16.8333333,7.55125 16.7996667,6.235 16.7348272,4.885 L19.0727901,4.885 L19.2211728,6.78625 L19.2710494,6.78625 C20.1576049,5.35375 21.5030247,4.63875 23.3085556,4.63875 C24.7200617,4.63875 25.8983951,5.1975 26.8410617,6.31625 C27.7862222,7.43625 28.2575556,8.90875 28.2575556,10.735 L28.2575556,10.735 Z M25.5492593,10.8325 C25.5492593,9.665 25.2874074,8.7025 24.7612099,7.945 C24.1863827,7.155 23.4145432,6.76 22.4469383,6.76 C21.7910617,6.76 21.195037,6.98 20.6626049,7.41375 C20.1289259,7.85125 19.7797901,8.4225 19.6164444,9.13 C19.5341481,9.46 19.493,9.73 19.493,9.9425 L19.493,11.9425 C19.493,12.815 19.7598395,13.55125 20.2935185,14.1525 C20.8271975,14.75375 21.5204815,15.05375 22.3733704,15.05375 C23.374642,15.05375 24.153963,14.66625 24.7113333,13.89375 C25.2699506,13.12 25.5492593,12.1 25.5492593,10.8325 L25.5492593,10.8325 Z" id="Shape"></path>
                        <path d="M42.0197407,10.735 C42.0197407,12.775 41.4698519,14.3875 40.3688272,15.57125 C39.3850123,16.625 38.1617901,17.15125 36.7016543,17.15125 C35.1255556,17.15125 33.993358,16.58375 33.3050617,15.44875 L33.2551852,15.44875 L33.2551852,21.7675 L30.5967654,21.7675 L30.5967654,8.83375 C30.5967654,7.55125 30.5630988,6.235 30.4982593,4.885 L32.8362222,4.885 L32.9846049,6.78625 L33.0344815,6.78625 C33.9197901,5.35375 35.2652099,4.63875 37.0719877,4.63875 C38.4822469,4.63875 39.6605802,5.1975 40.6057407,6.31625 C41.5471605,7.43625 42.0197407,8.90875 42.0197407,10.735 L42.0197407,10.735 Z M39.3114444,10.8325 C39.3114444,9.665 39.0483457,8.7025 38.5221481,7.945 C37.947321,7.155 37.1779753,6.76 36.2091235,6.76 C35.552,6.76 34.9572222,6.98 34.4235432,7.41375 C33.8898642,7.85125 33.5419753,8.4225 33.3786296,9.13 C33.2975802,9.46 33.2551852,9.73 33.2551852,9.9425 L33.2551852,11.9425 C33.2551852,12.815 33.5220247,13.55125 34.0532099,14.1525 C34.5868889,14.7525 35.2801728,15.05375 36.1355556,15.05375 C37.1368272,15.05375 37.9161481,14.66625 38.4735185,13.89375 C39.0321358,13.12 39.3114444,12.1 39.3114444,10.8325 L39.3114444,10.8325 Z" id="Shape"></path>
                        <path d="M57.4066543,12.215 C57.4066543,13.63 56.9166173,14.78125 55.9328025,15.67 C54.8517284,16.64125 53.3467037,17.12625 51.4127407,17.12625 C49.6271605,17.12625 48.1957037,16.78125 47.1121358,16.09 L47.7281111,13.86875 C48.8952222,14.57625 50.1758025,14.93125 51.5710988,14.93125 C52.5723704,14.93125 53.3516914,14.70375 53.9115556,14.25125 C54.4689259,13.79875 54.7469877,13.19125 54.7469877,12.43375 C54.7469877,11.75875 54.5175556,11.19 54.0574444,10.72875 C53.5998272,10.2675 52.8354691,9.83875 51.7681111,9.4425 C48.8628025,8.35625 47.4113951,6.765 47.4113951,4.6725 C47.4113951,3.305 47.9201358,2.18375 48.9388642,1.31125 C49.9538519,0.4375 51.308,0.00125 53.0013086,0.00125 C54.511321,0.00125 55.765716,0.265 56.7669877,0.79125 L56.1023827,2.96375 C55.1671975,2.45375 54.1098148,2.19875 52.9264938,2.19875 C51.9913086,2.19875 51.2606173,2.43 50.7369136,2.89 C50.2942593,3.30125 50.0723086,3.8025 50.0723086,4.39625 C50.0723086,5.05375 50.3254321,5.5975 50.8341728,6.025 C51.2768272,6.42 52.0810864,6.8475 53.2481975,7.30875 C54.6759136,7.885 55.7245679,8.55875 56.3991481,9.33125 C57.0712346,10.10125 57.4066543,11.065 57.4066543,12.215 L57.4066543,12.215 Z" id="Shape"></path>
                        <path d="M66.1961481,6.885 L63.2659012,6.885 L63.2659012,12.70875 C63.2659012,14.19 63.7821235,14.93 64.8170617,14.93 C65.2921358,14.93 65.6861605,14.88875 65.9978889,14.80625 L66.0714568,16.83 C65.5477531,17.02625 64.8582099,17.125 64.0040741,17.125 C62.9541728,17.125 62.1337037,16.80375 61.5414198,16.1625 C60.9516296,15.52 60.6548642,14.4425 60.6548642,12.92875 L60.6548642,6.8825 L58.9091852,6.8825 L58.9091852,4.8825 L60.6548642,4.8825 L60.6548642,2.68625 L63.2659012,1.89625 L63.2659012,4.8825 L66.1961481,4.8825 L66.1961481,6.885 L66.1961481,6.885 Z" id="Shape"></path>
                        <path d="M79.4171728,10.78375 C79.4171728,12.6275 78.8909753,14.14125 77.8410741,15.325 C76.7400494,16.54375 75.2786667,17.15125 73.4569259,17.15125 C71.7012716,17.15125 70.3034815,16.5675 69.2610617,15.4 C68.218642,14.2325 67.6974321,12.75875 67.6974321,10.9825 C67.6974321,9.12375 68.2336049,7.60125 69.3096914,6.4175 C70.383284,5.2325 71.8321975,4.64 73.6539383,4.64 C75.4095926,4.64 76.8223457,5.22375 77.8884568,6.3925 C78.9084321,7.52625 79.4171728,8.99 79.4171728,10.78375 L79.4171728,10.78375 Z M76.659,10.87 C76.659,9.76375 76.4233333,8.815 75.9457654,8.02375 C75.3883951,7.06625 74.5916173,6.58875 73.5591728,6.58875 C72.4905679,6.58875 71.6788272,7.0675 71.1214568,8.02375 C70.6438889,8.81625 70.4082222,9.78 70.4082222,10.92 C70.4082222,12.02625 70.6438889,12.975 71.1214568,13.765 C71.696284,14.7225 72.4992963,15.2 73.5354815,15.2 C74.5504691,15.2 75.3472469,14.7125 75.9220741,13.74 C76.4121111,12.93375 76.659,11.975 76.659,10.87 L76.659,10.87 Z" id="Shape"></path>
                        <path d="M88.058284,7.22875 C87.7951852,7.18 87.5146296,7.155 87.220358,7.155 C86.2851728,7.155 85.561963,7.50875 85.0532222,8.2175 C84.6105679,8.8425 84.3886173,9.6325 84.3886173,10.58625 L84.3886173,16.88 L81.7314444,16.88 L81.7563827,8.6625 C81.7563827,7.28 81.722716,6.02125 81.6566296,4.88625 L83.9721481,4.88625 L84.0694074,7.18125 L84.1429753,7.18125 C84.4235309,6.3925 84.8661852,5.7575 85.4721852,5.28125 C86.0644691,4.8525 86.7041358,4.63875 87.393679,4.63875 C87.639321,4.63875 87.8612716,4.65625 88.058284,4.6875 L88.058284,7.22875 L88.058284,7.22875 Z" id="Shape"></path>
                        <path d="M99.9476049,10.315 C99.9476049,10.7925 99.9164321,11.195 99.8503457,11.52375 L91.8750864,11.52375 C91.9062593,12.70875 92.2915556,13.615 93.0322222,14.24 C93.7043086,14.79875 94.5734074,15.07875 95.6407654,15.07875 C96.8215926,15.07875 97.8989259,14.89 98.8677778,14.51125 L99.2842469,16.36125 C98.1520494,16.85625 96.815358,17.1025 95.2729259,17.1025 C93.4175185,17.1025 91.9611235,16.555 90.9012469,15.46125 C89.8438642,14.3675 89.3139259,12.89875 89.3139259,11.05625 C89.3139259,9.2475 89.8064568,7.74125 90.7927654,6.54 C91.8252099,5.2575 93.2205062,4.61625 94.9761605,4.61625 C96.700642,4.61625 98.0061605,5.2575 98.892716,6.54 C99.5947284,7.55875 99.9476049,8.81875 99.9476049,10.315 L99.9476049,10.315 Z M97.4126296,9.62375 C97.4300864,8.83375 97.2567654,8.15125 96.8964074,7.575 C96.4362963,6.83375 95.7292963,6.46375 94.7779012,6.46375 C93.9088025,6.46375 93.2018025,6.825 92.6618889,7.55 C92.2192346,8.12625 91.9561358,8.8175 91.8750864,9.6225 L97.4126296,9.6225 L97.4126296,9.62375 Z" id="Shape"></path>
                    </g>
                    <g id="Download-on-the" transform="translate(53.000000, 7.500000)" fill="#FFFFFF">
                        <path d="M7.55112782,5.01125 C7.55112782,6.4825 7.11054135,7.59 6.23061654,8.33375 C5.41559398,9.02 4.25733835,9.36375 2.75709774,9.36375 C2.01321805,9.36375 1.37667669,9.33125 0.843729323,9.26625 L0.843729323,1.2275 C1.53893233,1.115 2.28780451,1.0575 3.09658647,1.0575 C4.52568421,1.0575 5.60281203,1.36875 6.32921805,1.99125 C7.14299248,2.695 7.55112782,3.70125 7.55112782,5.01125 L7.55112782,5.01125 Z M6.17195489,5.0475 C6.17195489,4.09375 5.91983459,3.3625 5.41559398,2.8525 C4.91135338,2.34375 4.17496241,2.08875 3.20517293,2.08875 C2.79329323,2.08875 2.44257143,2.11625 2.1517594,2.17375 L2.1517594,8.285 C2.31276692,8.31 2.60732331,8.32125 3.03542857,8.32125 C4.03642105,8.32125 4.80900752,8.0425 5.35318797,7.485 C5.89736842,6.9275 6.17195489,6.115 6.17195489,5.0475 L6.17195489,5.0475 Z" id="Shape"></path>
                        <path d="M14.8638647,6.29625 C14.8638647,7.2025 14.6055038,7.945 14.088782,8.5275 C13.5470977,9.12625 12.8294286,9.425 11.9332782,9.425 C11.0695789,9.425 10.3818647,9.13875 9.86888722,8.56375 C9.35715789,7.99 9.10129323,7.26625 9.10129323,6.39375 C9.10129323,5.48125 9.36464662,4.7325 9.89384962,4.15125 C10.4230526,3.57 11.1344812,3.27875 12.0306316,3.27875 C12.8943308,3.27875 13.5882857,3.565 14.1137444,4.13875 C14.6129925,4.69625 14.8638647,5.41625 14.8638647,6.29625 L14.8638647,6.29625 Z M13.5071579,6.33875 C13.5071579,5.795 13.3898346,5.32875 13.1564361,4.94 C12.8818496,4.47 12.491188,4.235 11.983203,4.235 C11.4577444,4.235 11.0583459,4.47 10.7837594,4.94 C10.5491128,5.32875 10.4330376,5.8025 10.4330376,6.3625 C10.4330376,6.90625 10.5503609,7.3725 10.7837594,7.76125 C11.0670827,8.23125 11.4614887,8.46625 11.9707218,8.46625 C12.4699699,8.46625 12.8618797,8.2275 13.1439549,7.74875 C13.3860902,7.3525 13.5071579,6.8825 13.5071579,6.33875 L13.5071579,6.33875 Z" id="Shape"></path>
                        <path d="M24.6690977,3.39875 L22.8281203,9.29125 L21.6299248,9.29125 L20.8673233,6.7325 C20.6738647,6.09375 20.5166015,5.45875 20.3942857,4.82875 L20.3705714,4.82875 C20.2569925,5.47625 20.0997293,6.11 19.8975338,6.7325 L19.0875038,9.29125 L17.8755789,9.29125 L16.1444361,3.39875 L17.4886617,3.39875 L18.1539098,6.2 C18.3149173,6.8625 18.447218,7.49375 18.5533083,8.09125 L18.5770226,8.09125 C18.6743759,7.59875 18.8353835,6.97125 19.0625414,6.2125 L19.8975338,3.4 L20.9634286,3.4 L21.7634737,6.1525 C21.9569323,6.82375 22.1141955,7.47 22.2352632,8.0925 L22.2714586,8.0925 C22.3600752,7.48625 22.4936241,6.84 22.6708571,6.1525 L23.384782,3.4 L24.6690977,3.4 L24.6690977,3.39875 Z" id="Shape"></path>
                        <path d="M31.4501353,9.29125 L30.1421053,9.29125 L30.1421053,5.91625 C30.1421053,4.87625 29.7476992,4.35625 28.956391,4.35625 C28.5682256,4.35625 28.2549474,4.49875 28.0115639,4.785 C27.7706767,5.07125 27.6483609,5.40875 27.6483609,5.795 L27.6483609,9.29 L26.3403308,9.29 L26.3403308,5.0825 C26.3403308,4.565 26.3241053,4.00375 26.2929023,3.39625 L27.4424211,3.39625 L27.5035789,4.3175 L27.5397744,4.3175 C27.6920451,4.03125 27.919203,3.795 28.2175038,3.60625 C28.5719699,3.38625 28.9688722,3.275 29.403218,3.275 C29.952391,3.275 30.409203,3.4525 30.772406,3.80875 C31.2242256,4.245 31.4501353,4.89625 31.4501353,5.76125 L31.4501353,9.29125 L31.4501353,9.29125 Z" id="Shape"></path>
                        <path d="M35.057203,9.29125 L33.7504211,9.29125 L33.7504211,0.695 L35.057203,0.695 L35.057203,9.29125 L35.057203,9.29125 Z" id="Shape"></path>
                        <path d="M42.7581053,6.29625 C42.7581053,7.2025 42.4997444,7.945 41.9830226,8.5275 C41.4413383,9.12625 40.7224211,9.425 39.8275188,9.425 C38.9625714,9.425 38.2748571,9.13875 37.7631278,8.56375 C37.2513985,7.99 36.9955338,7.26625 36.9955338,6.39375 C36.9955338,5.48125 37.2588872,4.7325 37.7880902,4.15125 C38.3172932,3.57 39.0287218,3.27875 39.9236241,3.27875 C40.7885714,3.27875 41.4812782,3.565 42.007985,4.13875 C42.5072331,4.69625 42.7581053,5.41625 42.7581053,6.29625 L42.7581053,6.29625 Z M41.4001504,6.33875 C41.4001504,5.795 41.2828271,5.32875 41.0494286,4.94 C40.7760902,4.47 40.3841805,4.235 39.8774436,4.235 C39.3507368,4.235 38.9513383,4.47 38.678,4.94 C38.4433534,5.32875 38.3272782,5.8025 38.3272782,6.3625 C38.3272782,6.90625 38.4446015,7.3725 38.678,7.76125 C38.9613233,8.23125 39.3557293,8.46625 39.8649624,8.46625 C40.3642105,8.46625 40.7548722,8.2275 41.0369474,7.74875 C41.2803308,7.3525 41.4001504,6.8825 41.4001504,6.33875 L41.4001504,6.33875 Z" id="Shape"></path>
                        <path d="M49.0885714,9.29125 L47.9140902,9.29125 L47.8167368,8.6125 L47.7805414,8.6125 C47.3786466,9.15375 46.8057594,9.425 46.0618797,9.425 C45.5064662,9.425 45.0571429,9.24625 44.7189023,8.89125 C44.4118647,8.56875 44.2583459,8.1675 44.2583459,7.69125 C44.2583459,6.97125 44.5578947,6.4225 45.1607368,6.0425 C45.7623308,5.6625 46.6085564,5.47625 47.6981654,5.485 L47.6981654,5.375 C47.6981654,4.59875 47.2912782,4.21125 46.4762556,4.21125 C45.8958797,4.21125 45.3841504,4.3575 44.9423158,4.6475 L44.6764662,3.7875 C45.2231429,3.44875 45.8983759,3.27875 46.6946767,3.27875 C48.2323609,3.27875 49.0036992,4.09125 49.0036992,5.71625 L49.0036992,7.88625 C49.0036992,8.475 49.032406,8.94375 49.0885714,9.29125 L49.0885714,9.29125 Z M47.7306165,7.26625 L47.7306165,6.3575 C46.2877895,6.3325 45.5663759,6.72875 45.5663759,7.545 C45.5663759,7.8525 45.6487519,8.0825 45.8172481,8.23625 C45.9857444,8.39 46.2004211,8.46625 46.4562857,8.46625 C46.7433534,8.46625 47.0116992,8.375 47.2563308,8.19375 C47.5022105,8.01125 47.6532331,7.78 47.7093985,7.49625 C47.7231278,7.4325 47.7306165,7.355 47.7306165,7.26625 L47.7306165,7.26625 Z" id="Shape"></path>
                        <path d="M56.5211278,9.29125 L55.3603759,9.29125 L55.299218,8.345 L55.2630226,8.345 C54.8923308,9.065 54.260782,9.425 53.3733684,9.425 C52.6644361,9.425 52.0740752,9.14625 51.6060301,8.58875 C51.137985,8.03125 50.9045865,7.3075 50.9045865,6.41875 C50.9045865,5.465 51.1579549,4.6925 51.667188,4.1025 C52.1601955,3.5525 52.7642857,3.2775 53.483203,3.2775 C54.2732632,3.2775 54.8261805,3.54375 55.1407068,4.0775 L55.1656692,4.0775 L55.1656692,0.695 L56.4749474,0.695 L56.4749474,7.70375 C56.4749474,8.2775 56.4899248,8.80625 56.5211278,9.29125 L56.5211278,9.29125 Z M55.1656692,6.80625 L55.1656692,5.82375 C55.1656692,5.65375 55.153188,5.51625 55.1294737,5.41125 C55.0558346,5.09625 54.8973233,4.83125 54.6564361,4.6175 C54.4130526,4.40375 54.1197444,4.29625 53.7815038,4.29625 C53.2934887,4.29625 52.9115639,4.49 52.6307368,4.87875 C52.352406,5.2675 52.2113684,5.76375 52.2113684,6.37 C52.2113684,6.9525 52.3449173,7.425 52.6132632,7.78875 C52.8965865,8.17625 53.2785113,8.37 53.7565414,8.37 C54.1858947,8.37 54.5291278,8.20875 54.789985,7.885 C55.0421053,7.58625 55.1656692,7.22625 55.1656692,6.80625 L55.1656692,6.80625 Z" id="Shape"></path>
                        <path d="M67.7080301,6.29625 C67.7080301,7.2025 67.4496692,7.945 66.9329474,8.5275 C66.3912632,9.12625 65.6748421,9.425 64.7774436,9.425 C63.9149925,9.425 63.2272782,9.13875 62.7130526,8.56375 C62.2013233,7.99 61.9454586,7.26625 61.9454586,6.39375 C61.9454586,5.48125 62.208812,4.7325 62.738015,4.15125 C63.267218,3.57 63.9786466,3.27875 64.8760451,3.27875 C65.7384962,3.27875 66.4336992,3.565 66.9579098,4.13875 C67.4571579,4.69625 67.7080301,5.41625 67.7080301,6.29625 L67.7080301,6.29625 Z M66.3525714,6.33875 C66.3525714,5.795 66.2352481,5.32875 66.0018496,4.94 C65.726015,4.47 65.3366015,4.235 64.8273684,4.235 C64.3031579,4.235 63.9037594,4.47 63.6279248,4.94 C63.3932782,5.32875 63.277203,5.8025 63.277203,6.3625 C63.277203,6.90625 63.3945263,7.3725 63.6279248,7.76125 C63.9112481,8.23125 64.3056541,8.46625 64.8148872,8.46625 C65.3141353,8.46625 65.7072932,8.2275 65.9893684,7.74875 C66.2302556,7.3525 66.3525714,6.8825 66.3525714,6.33875 L66.3525714,6.33875 Z" id="Shape"></path>
                        <path d="M74.741188,9.29125 L73.434406,9.29125 L73.434406,5.91625 C73.434406,4.87625 73.04,4.35625 72.2474436,4.35625 C71.8592782,4.35625 71.546,4.49875 71.3038647,4.785 C71.0617293,5.07125 70.9406617,5.40875 70.9406617,5.795 L70.9406617,9.29 L69.6313835,9.29 L69.6313835,5.0825 C69.6313835,4.565 69.616406,4.00375 69.585203,3.39625 L70.7334737,3.39625 L70.7946316,4.3175 L70.8308271,4.3175 C70.9843459,4.03125 71.2115038,3.795 71.5085564,3.60625 C71.8642707,3.38625 72.2599248,3.275 72.6955188,3.275 C73.2434436,3.275 73.7002556,3.4525 74.0634586,3.80875 C74.5165263,4.245 74.741188,4.89625 74.741188,5.76125 L74.741188,9.29125 L74.741188,9.29125 Z" id="Shape"></path>
                        <path d="M83.5441805,4.38 L82.1038496,4.38 L82.1038496,7.2425 C82.1038496,7.97 82.3597143,8.33375 82.8664511,8.33375 C83.1010977,8.33375 83.2958045,8.31375 83.4493233,8.2725 L83.4830226,9.26625 C83.2246617,9.36375 82.8851729,9.4125 82.4670526,9.4125 C81.9503308,9.4125 81.5484361,9.255 81.2576241,8.94 C80.9655639,8.625 80.820782,8.095 80.820782,7.35125 L80.820782,4.38 L79.9608271,4.38 L79.9608271,3.39875 L80.820782,3.39875 L80.820782,2.31875 L82.1026015,1.93125 L82.1026015,3.3975 L83.5429323,3.3975 L83.5429323,4.38 L83.5441805,4.38 Z" id="Shape"></path>
                        <path d="M90.4687519,9.29125 L89.1594737,9.29125 L89.1594737,5.94125 C89.1594737,4.885 88.7650677,4.35625 87.9750075,4.35625 C87.3684211,4.35625 86.9540451,4.6625 86.7268872,5.275 C86.6881955,5.40375 86.6657293,5.56125 86.6657293,5.74625 L86.6657293,9.29 L85.3589474,9.29 L85.3589474,0.695 L86.6657293,0.695 L86.6657293,4.24625 L86.6906917,4.24625 C87.1025714,3.6 87.6929323,3.2775 88.4580301,3.2775 C88.9997143,3.2775 89.4477895,3.455 89.8035038,3.81125 C90.2465865,4.255 90.4687519,4.915 90.4687519,5.7875 L90.4687519,9.29125 L90.4687519,9.29125 Z" id="Shape"></path>
                        <path d="M97.6117444,6.06625 C97.6117444,6.30125 97.5942707,6.49875 97.5630677,6.66 L93.6402256,6.66 C93.6576992,7.2425 93.8449173,7.68625 94.2081203,7.99375 C94.5401203,8.26875 94.9682256,8.40625 95.4924361,8.40625 C96.072812,8.40625 96.602015,8.31375 97.078797,8.1275 L97.2834887,9.0375 C96.7255789,9.28 96.0690677,9.40125 95.3089624,9.40125 C94.3978346,9.40125 93.6801654,9.1325 93.1609474,8.595 C92.6392331,8.0575 92.3808722,7.33625 92.3808722,6.43125 C92.3808722,5.5425 92.6217594,4.8025 93.1072782,4.2125 C93.614015,3.5825 94.2992331,3.2675 95.1641805,3.2675 C96.010406,3.2675 96.653188,3.5825 97.0875338,4.2125 C97.4382556,4.7125 97.6117444,5.33125 97.6117444,6.06625 L97.6117444,6.06625 Z M96.3636241,5.7275 C96.373609,5.33875 96.2874887,5.00375 96.1102556,4.72125 C95.8830977,4.3575 95.5373684,4.175 95.0693233,4.175 C94.6424662,4.175 94.2942406,4.3525 94.028391,4.70875 C93.811218,4.9925 93.6826617,5.33125 93.6402256,5.7275 L96.3636241,5.7275 L96.3636241,5.7275 Z" id="Shape"></path>
                    </g>
                </g>
            </g>
        </g>
    </g>
</svg>