<?xml version="1.0" encoding="UTF-8" standalone="no"?>
<svg width="146px" height="50px" viewBox="0 0 146 50" version="1.1" xmlns="http://www.w3.org/2000/svg" xmlns:xlink="http://www.w3.org/1999/xlink" xmlns:sketch="http://www.bohemiancoding.com/sketch/ns">
    <!-- Generator: Sketch 3.3.2 (12043) - http://www.bohemiancoding.com/sketch -->
    <title>google-play-btn--lg</title>
    <desc>Created with Sketch.</desc>
    <defs>
        <linearGradient x1="60.0995717%" y1="91.9797552%" x2="33.5000976%" y2="-59.2459079%" id="linearGradient-1">
            <stop stop-color="#D7E69D" offset="0%"></stop>
            <stop stop-color="#94C4AA" offset="44.56%"></stop>
            <stop stop-color="#01A4B6" offset="100%"></stop>
        </linearGradient>
        <linearGradient x1="-31.9859505%" y1="-128.818008%" x2="80.4721996%" y2="114.258403%" id="linearGradient-2">
            <stop stop-color="#ED277B" offset="0%"></stop>
            <stop stop-color="#EE2F7C" offset="1.92%"></stop>
            <stop stop-color="#F7BD81" offset="70.39%"></stop>
            <stop stop-color="#FEEB74" offset="100%"></stop>
        </linearGradient>
        <linearGradient x1="50.9068572%" y1="74.7179969%" x2="-0.00833083431%" y2="-29.4385912%" id="linearGradient-3">
            <stop stop-color="#89CFBD" offset="0%"></stop>
            <stop stop-color="#7DBEBB" offset="9.07%"></stop>
            <stop stop-color="#457CAC" offset="53.96%"></stop>
            <stop stop-color="#1C5AA2" offset="85.23%"></stop>
            <stop stop-color="#084D9F" offset="100%"></stop>
        </linearGradient>
        <linearGradient x1="119.297308%" y1="35.6799782%" x2="-22.9911292%" y2="61.1851255%" id="linearGradient-4">
            <stop stop-color="#F04A2B" offset="0%"></stop>
            <stop stop-color="#B54F6B" offset="47.04%"></stop>
            <stop stop-color="#8B5191" offset="83.53%"></stop>
            <stop stop-color="#7851A1" offset="100%"></stop>
        </linearGradient>
    </defs>
    <g id="Page-1" stroke="none" stroke-width="1" fill="none" fill-rule="evenodd" sketch:type="MSPage">
        <g id="fleetio-fuel-landing-page" sketch:type="MSArtboardGroup" transform="translate(-276.000000, -500.000000)">
            <g id="Section-1---Hero" sketch:type="MSLayerGroup" transform="translate(85.000000, 60.000000)">
                <g id="google-play-btn--lg" transform="translate(191.000000, 440.000000)" sketch:type="MSShapeGroup">
                    <rect id="Rectangle-1" opacity="0.74842584" fill="#232B2E" x="0" y="0" width="146" height="50" rx="5"></rect>
                    <g id="Google-play" transform="translate(33.000000, 21.000000)" fill="#FFFFFF">
                        <path d="M66.126425,14.6913793 L65.0360507,15.7198276 C64.7856174,15.8568966 64.5351842,16.0198276 64.284751,16.1327586 C63.5291482,16.4767241 62.7606366,16.562931 62.0781845,16.562931 C61.3492602,16.562931 60.2106926,16.5155172 59.0480283,15.6732759 C57.4309696,14.5336207 56.7261421,12.575 56.7261421,10.8663793 C56.7261421,7.33017241 59.6005305,5.59741379 61.943071,5.59741379 C62.7623578,5.59741379 63.6031594,5.80344828 64.2873327,6.2362069 C65.4250398,6.9887931 65.7193634,7.96896552 65.8828765,8.49310345 L60.5308341,10.6594828 L58.7769408,10.7956897 C59.3449337,13.6931034 61.3036487,15.3784483 63.4663248,15.3784483 C64.5472325,15.3784483 65.3493074,15.0267241 66.0851164,14.662069 C66.0842558,14.662931 66.2322782,14.5862069 66.126425,14.6913793 L66.126425,14.6913793 Z M62.8974713,8.92586207 C63.3320719,8.76724138 63.5584085,8.63017241 63.5584085,8.31293103 C63.5584085,7.40172414 62.5299971,6.35172414 61.3027881,6.35172414 C60.3931388,6.35172414 58.6857177,7.06034483 58.6857177,9.525 C58.6857177,9.90775862 58.7313292,10.3181034 58.7545653,10.7284483 L62.8974713,8.92586207 L62.8974713,8.92586207 Z" id="Shape"></path>
                        <path d="M54.9369643,14.5137931 C54.9369643,15.4 55.0953139,15.537931 55.8431712,15.6086207 C56.2330209,15.6543103 56.62201,15.6741379 57.0084173,15.7215517 L56.1658945,16.2224138 L52.1555202,16.2224138 C52.6813439,15.5396552 52.7708459,15.4715517 52.7708459,15.0172414 L52.7708459,14.5060345 L52.7622399,0.949137931 L50.9902741,0.949137931 L52.6942529,0.125862069 L55.9490245,0.125862069 C55.2441969,0.535344828 55.0324904,0.78362069 54.9412673,1.58103448 L54.9369643,14.5137931 L54.9369643,14.5137931 Z" id="Shape"></path>
                        <path d="M48.7165812,6.71637931 C49.238102,7.14741379 50.3293369,8.06034483 50.3293369,9.79224138 C50.3293369,11.4801724 49.3792396,12.2767241 48.4205364,13.0310345 C48.1262128,13.3275862 47.7828352,13.65 47.7828352,14.1482759 C47.7828352,14.6517241 48.1262128,14.9241379 48.3749248,15.1301724 L49.1985146,15.7646552 C50.1959446,16.6094828 51.1090363,17.3862069 51.1090363,18.9594828 C51.1090363,21.1043103 49.0375833,23.2663793 45.1210139,23.2663793 C41.8214913,23.2663793 40.2268081,21.6948276 40.2268081,20.0077586 C40.2268081,19.1853448 40.6347303,18.0224138 41.9807014,17.225 C43.3929384,16.3612069 45.3043207,16.2448276 46.3292897,16.1784483 C46.0091482,15.7646552 45.6442558,15.3310345 45.6442558,14.625 C45.6442558,14.237931 45.7612968,14.0068966 45.8723136,13.7353448 C45.6236015,13.7594828 45.3731683,13.7853448 45.1442499,13.7853448 C42.7294194,13.7853448 41.362794,11.9784483 41.362794,10.2034483 C41.362794,9.15344828 41.8421456,7.99137931 42.8215031,7.14741379 C44.1192809,6.07672414 45.6674919,5.89137931 46.8947009,5.89137931 L51.5858061,5.89137931 L50.1296788,6.71637931 L48.7165812,6.71637931 L48.7165812,6.71637931 Z M47.1029649,16.8405172 C46.9162157,16.8172414 46.8034777,16.8172414 46.579723,16.8172414 C46.3740407,16.8172414 45.1442499,16.862931 44.1915709,17.1827586 C43.6889832,17.3681034 42.2319953,17.912069 42.2319953,19.5318966 C42.2319953,21.1482759 43.804303,22.3155172 46.2363454,22.3155172 C48.4222576,22.3155172 49.5832007,21.2655172 49.5832007,19.8534483 C49.5814795,18.687931 48.8310404,18.0732759 47.1029649,16.8405172 L47.1029649,16.8405172 Z M47.7570174,12.5068966 C48.2845623,11.9801724 48.3293133,11.2543103 48.3293133,10.8405172 C48.3293133,9.20172414 47.3533982,6.64655172 45.460949,6.64655172 C44.8705806,6.64655172 44.2311583,6.94310345 43.8671264,7.40172414 C43.4841615,7.87758621 43.3688417,8.49396552 43.3688417,9.08534483 C43.3688417,10.612069 44.2569761,13.1456897 46.2122487,13.1456897 C46.7836841,13.1456897 47.3972885,12.8672414 47.7570174,12.5068966 L47.7570174,12.5068966 Z" id="Shape"></path>
                        <path d="M34.6028176,16.5181034 C30.9840141,16.5181034 29.0485352,13.6956897 29.0485352,11.1405172 C29.0485352,8.15431034 31.4822989,5.59827586 34.9436133,5.59827586 C38.289608,5.59827586 40.3860183,8.22241379 40.3860183,10.9784483 C40.3860183,13.6689655 38.3145653,16.5181034 34.6028176,16.5181034 L34.6028176,16.5181034 Z M37.449667,14.6724138 C38.000448,13.9431034 38.1329797,13.0327586 38.1329797,12.1439655 C38.1329797,10.1362069 37.1777188,6.30603448 34.3541055,6.30603448 C33.6036664,6.30603448 32.8480637,6.6 32.3033068,7.08017241 C31.4125906,7.87758621 31.2551017,8.87931034 31.2551017,9.8637931 C31.2551017,12.1163793 32.3669909,15.8327586 35.1269201,15.8327586 C36.0167757,15.8327586 36.9247038,15.4017241 37.449667,14.6724138 L37.449667,14.6724138 Z" id="Shape"></path>
                        <path d="M22.4873563,16.5181034 C18.8676923,16.5181034 16.9356558,13.6956897 16.9356558,11.1405172 C16.9356558,8.15431034 19.3711406,5.59827586 22.8307339,5.59827586 C26.175868,5.59827586 28.2688358,8.22241379 28.2688358,10.9784483 C28.2688358,13.6689655 26.2008252,16.5181034 22.4873563,16.5181034 L22.4873563,16.5181034 Z M25.3350663,14.6724138 C25.8806838,13.9431034 26.0175184,13.0327586 26.0175184,12.1439655 C26.0175184,10.1362069 25.0596758,6.30603448 22.2386443,6.30603448 C21.4856233,6.30603448 20.7369054,6.6 20.1912879,7.08017241 C19.2997112,7.87758621 19.1430828,8.87931034 19.1430828,9.8637931 C19.1430828,12.1163793 20.2584144,15.8327586 23.0131801,15.8327586 C23.9030357,15.8327586 24.8101032,15.4017241 25.3350663,14.6724138 L25.3350663,14.6724138 Z" id="Shape"></path>
                        <path d="M15.488995,15.7267241 L12.4364633,16.4267241 C11.2006484,16.6232759 10.0904804,16.7948276 8.91490716,16.7948276 C3.02843501,16.7948276 0.784862953,12.4543103 0.784862953,9.05689655 C0.784862953,4.90862069 3.96304156,1.06206897 9.40544651,1.06206897 C10.5560625,1.06206897 11.6645093,1.23103448 12.6739876,1.50603448 C14.2729738,1.95689655 15.0216917,2.51206897 15.488995,2.83706897 L13.715308,4.525 L12.9674506,4.69051724 L13.5001592,3.84051724 C12.7789803,3.13448276 11.4519422,1.83017241 8.93384026,1.83017241 C5.56633068,1.83017241 3.02671382,4.39310345 3.02671382,8.13793103 C3.02671382,12.1568966 5.92778073,15.9387931 10.5775774,15.9387931 C11.9450634,15.9387931 12.6481698,15.6637931 13.2858709,15.4077586 L13.2858709,11.9612069 L10.0638019,12.1336207 L11.7720837,11.2155172 L16.2936516,11.2155172 L15.7394282,11.7491379 C15.5905452,11.8758621 15.5716121,11.9181034 15.529443,12.0905172 C15.5070675,12.2862069 15.4864132,12.9034483 15.4864132,13.1215517 L15.4864132,15.7267241 L15.488995,15.7267241 L15.488995,15.7267241 Z" id="Shape"></path>
                        <path d="M72.6884645,14.7887931 L72.6884645,20.5974138 L71.5369879,20.5974138 L71.5369879,5.81724138 L72.6884645,5.81724138 L72.6884645,7.49913793 C73.438043,6.41206897 74.8089714,5.55 76.4002122,5.55 C79.254807,5.55 81.1799587,7.71982759 81.1799587,11.1534483 C81.1799587,14.5655172 79.2565281,16.7801724 76.4002122,16.7801724 C74.8984733,16.7818966 73.5525022,16.0060345 72.6884645,14.7887931 L72.6884645,14.7887931 Z M79.9432832,11.1551724 C79.9432832,8.56637931 78.5964515,6.59224138 76.2065782,6.59224138 C74.7229119,6.59224138 73.3055113,7.75948276 72.6884645,8.77758621 L72.6884645,13.5086207 C73.3055113,14.5284483 74.7229119,15.7396552 76.2065782,15.7396552 C78.5964515,15.7396552 79.9432832,13.7482759 79.9432832,11.1551724 L79.9432832,11.1551724 Z" id="Shape"></path>
                        <path d="M82.7522664,16.5163793 L82.7522664,1.73706897 L83.9054642,1.73706897 L83.9054642,16.5163793 L82.7522664,16.5163793 L82.7522664,16.5163793 Z" id="Shape"></path>
                        <path d="M96.8247215,19.6413793 C97.0699912,19.7517241 97.4899617,19.8198276 97.7567462,19.8198276 C98.4598526,19.8198276 98.9521132,19.5301724 99.3910168,18.5112069 L100.232679,16.6051724 L95.696481,5.81724138 L96.9804892,5.81724138 L100.872101,15.1663793 L104.725847,5.81724138 L106.028789,5.81724138 L100.495161,18.8681034 C99.9220041,20.2137931 99.018379,20.8603448 97.7774005,20.8603448 C97.4047627,20.8603448 96.915084,20.7931034 96.6267846,20.7051724 L96.8247215,19.6413793 L96.8247215,19.6413793 Z" id="Shape"></path>
                        <path d="M93.4606543,16.4836207 C93.3832007,16.1112069 93.3264014,15.7853448 93.2842322,15.512069 C93.2489478,15.2413793 93.2300147,14.9603448 93.2300147,14.6775862 C92.8350015,15.2586207 92.2756145,15.7413793 91.562181,16.1224138 C90.8470262,16.5043103 90.1680165,16.6931034 89.2351312,16.6931034 C88.1137754,16.6931034 87.2445741,16.4181034 86.6215031,15.8560345 C86.0018744,15.2956897 85.6903389,14.5362069 85.6903389,13.5758621 C85.6903389,12.6155172 86.1421515,11.837069 87.0414736,11.2439655 C87.9416564,10.6448276 89.1043207,10.3491379 90.5440967,10.3491379 L93.2300147,10.3491379 L93.2300147,9.01810345 C93.2300147,8.25086207 92.9683938,7.65086207 92.4485942,7.21293103 C91.9270734,6.77586207 91.1938462,6.55603448 90.2437489,6.55603448 C89.3745476,6.55603448 88.6705806,6.75689655 88.1352903,7.15 C87.604303,7.55172414 87.3357972,8.04827586 87.3357972,8.64741379 L86.1567816,8.64741379 L86.1344061,8.59051724 C86.0913764,7.78189655 86.4597112,7.07327586 87.2454347,6.46206897 C88.0242735,5.84913793 89.0501032,5.54310345 90.3100147,5.54310345 C91.5630416,5.54310345 92.5802653,5.84655172 93.3461951,6.44913793 C94.1112644,7.04655172 94.4942293,7.91206897 94.4942293,9.04224138 L94.4942293,14.3198276 C94.4942293,14.6982759 94.5123018,15.0646552 94.5596345,15.4215517 C94.6095491,15.7793103 94.6852815,16.1353448 94.7902741,16.4810345 L93.4606543,16.4836207 L93.4606543,16.4836207 Z M89.3745476,15.6439655 C90.3530445,15.6439655 91.0552903,15.425 91.774748,14.9913793 C92.487321,14.5612069 92.9744179,14.0008621 93.2282935,13.3206897 L93.2282935,11.2655172 L90.5294665,11.2655172 C89.4984733,11.2655172 88.6464839,11.4948276 87.9734984,11.9551724 C87.3013734,12.4146552 86.9588565,12.9715517 86.9588565,13.6189655 C86.9588565,14.2293103 87.1757265,14.7155172 87.604303,15.0853448 C88.0363218,15.4586207 88.6249691,15.6439655 89.3745476,15.6439655 L89.3745476,15.6439655 Z" id="Shape"></path>
                    </g>
                    <g id="Get-It-On" transform="translate(35.000000, 7.000000)" fill="#FFFFFF">
                        <path d="M0.101550251,3.96637931 C0.101550251,1.69568966 1.78659593,0.234482759 3.881285,0.234482759 C5.284916,0.234482759 6.20317123,0.905172414 6.77460654,1.72672414 L5.74963749,2.32155172 C5.36064839,1.78189655 4.67991748,1.35948276 3.881285,1.35948276 C2.45613911,1.35948276 1.39760684,2.44137931 1.39760684,3.96551724 C1.39760684,5.46982759 2.45613911,6.57241379 3.881285,6.57241379 C4.61537283,6.57241379 5.26254052,6.23706897 5.58698497,5.925 L5.58698497,4.80948276 L3.42775125,4.80948276 L3.42775125,3.69568966 L6.83915119,3.69568966 L6.83915119,6.38965517 C6.13776599,7.17931034 5.12226348,7.70948276 3.8804244,7.70948276 C1.78659593,7.70948276 0.101550251,6.22758621 0.101550251,3.96637931 L0.101550251,3.96637931 Z" id="Shape"></path>
                        <path d="M8.40285293,7.56896552 L8.40285293,0.353448276 L13.3375066,0.353448276 L13.3375066,1.46724138 L9.6662069,1.46724138 L9.6662069,3.32758621 L13.2617742,3.32758621 L13.2617742,4.44137931 L9.6662069,4.44137931 L9.6662069,6.45344828 L13.3375066,6.45344828 L13.3375066,7.56810345 L8.40285293,7.56896552 L8.40285293,7.56896552 Z" id="Shape"></path>
                        <path d="M16.8332449,7.56896552 L16.8332449,1.46810345 L14.6524963,1.46810345 L14.6524963,0.354310345 L20.2773475,0.354310345 L20.2773475,1.46810345 L18.0965989,1.46810345 L18.0965989,7.56896552 L16.8332449,7.56896552 L16.8332449,7.56896552 Z" id="Shape"></path>
                        <path d="M24.6681049,7.56896552 L24.6681049,0.353448276 L25.9314589,0.353448276 L25.9314589,7.56896552 L24.6681049,7.56896552 L24.6681049,7.56896552 Z" id="Shape"></path>
                        <path d="M29.4487121,7.56896552 L29.4487121,1.46810345 L27.2679635,1.46810345 L27.2679635,0.354310345 L32.8928146,0.354310345 L32.8928146,1.46810345 L30.712066,1.46810345 L30.712066,7.56896552 L29.4487121,7.56896552 L29.4487121,7.56896552 Z" id="Shape"></path>
                        <path d="M36.971176,3.96637931 C36.971176,1.8137931 38.4935691,0.234482759 40.6536634,0.234482759 C42.8017094,0.234482759 44.3344297,1.8137931 44.3344297,3.96637931 C44.3344297,6.11896552 42.8017094,7.69827586 40.6536634,7.69827586 C38.4935691,7.69827586 36.971176,6.11896552 36.971176,3.96637931 L36.971176,3.96637931 Z M43.0400943,3.96637931 C43.0400943,2.475 42.1003242,1.36034483 40.6553846,1.36034483 C39.1975361,1.36034483 38.2689537,2.47413793 38.2689537,3.96637931 C38.2689537,5.44913793 39.1975361,6.57327586 40.6553846,6.57327586 C42.1003242,6.57327586 43.0400943,5.44913793 43.0400943,3.96637931 L43.0400943,3.96637931 Z" id="Shape"></path>
                        <path d="M50.831064,7.56896552 L47.0737047,2.40948276 L47.0737047,7.56896552 L45.8112113,7.56896552 L45.8112113,0.353448276 L47.1072679,0.353448276 L50.7871736,5.35 L50.7871736,0.353448276 L52.0522487,0.353448276 L52.0522487,7.56896552 L50.831064,7.56896552 L50.831064,7.56896552 Z" id="Shape"></path>
                    </g>
                    <g id="play-icon" transform="translate(7.000000, 20.000000)">
                        <path d="M12.5560861,11.9758621 L16.2506219,8.27586207 L16.2497613,8.27586207 L12.5560861,11.9758621 L0.766790451,0.165517241 L0.765929856,0.165517241 L12.5560861,11.9775862 L0.746996758,23.8060345 L12.5560861,11.9775862 L16.2669732,15.6939655 L16.2686944,15.6939655 L12.5560861,11.9758621 Z" id="Shape"></path>
                        <path d="M16.2497613,8.27586207 L1.85544356,0.347413793 C1.44838196,0.124137931 1.07058061,0.0724137931 0.766790451,0.16637931 L12.5569467,11.9758621 L16.2497613,8.27586207 L16.2497613,8.27586207 Z" id="Shape" fill="url(#linearGradient-1)"></path>
                        <path d="M16.2686944,15.6939655 L21.1818332,12.9862069 C22.1784026,12.4344828 22.1784026,11.5387931 21.1818332,10.9913793 L16.2506219,8.27586207 L12.5569467,11.9758621 L16.2686944,15.6939655 L16.2686944,15.6939655 Z" id="Shape" fill="url(#linearGradient-2)"></path>
                        <path d="M0.765929856,0.165517241 C0.328747421,0.302586207 0.0447509579,0.747413793 0.0447509579,1.41896552 L0.0473327439,22.5586207 C0.0473327439,23.2224138 0.322723254,23.6594828 0.746996758,23.8051724 L12.5569467,11.975 L0.765929856,0.165517241 L0.765929856,0.165517241 Z" id="Shape" fill="url(#linearGradient-3)"></path>
                        <path d="M0.746996758,23.8060345 C1.0542293,23.9103448 1.43891541,23.8603448 1.85544356,23.6327586 L16.2678338,15.6939655 L12.5569467,11.9767241 L0.746996758,23.8060345 L0.746996758,23.8060345 Z" id="Shape" fill="url(#linearGradient-4)"></path>
                    </g>
                </g>
            </g>
        </g>
    </g>
</svg>